<svg height="480pt" viewBox="0 0 480.65983 480" width="480pt" fill="#fff" xmlns="http://www.w3.org/2000/svg"><path d="m352.332031 352.328125v9.472656c-11.015625 3.878907-17.621093 15.136719-15.644531 26.640625 1.980469 11.507813 11.96875 19.910156 23.644531 19.886719 4.417969 0 8 3.582031 8 8 0 4.421875-3.582031 8-8 8s-8-3.578125-8-8h-16c.039063 10.136719 6.445313 19.152344 16 22.53125v9.46875h16v-9.46875c11.011719-3.878906 17.621094-15.136719 15.640625-26.644531-1.976562-11.503906-11.964844-19.90625-23.640625-19.886719-4.417969 0-8-3.578125-8-8 0-4.417969 3.582031-8 8-8s8 3.582031 8 8h16c-.042969-10.132813-6.445312-19.148437-16-22.527344v-9.472656zm0 0"/><path d="m400.332031 200.328125c4.417969 0 8 3.582031 8 8 0 4.421875-3.582031 8-8 8s-8-3.578125-8-8h-16c.039063 10.136719 6.445313 19.152344 16 22.53125v9.46875h16v-9.46875c11.011719-3.878906 17.621094-15.136719 15.640625-26.644531-1.976562-11.503906-11.964844-19.90625-23.640625-19.886719-4.417969 0-8-3.578125-8-8 0-4.417969 3.582031-8 8-8s8 3.582031 8 8h16c-.042969-10.132813-6.445312-19.148437-16-22.527344v-9.472656h-16v9.472656c-11.015625 3.878907-17.621093 15.136719-15.644531 26.640625 1.980469 11.507813 11.96875 19.910156 23.644531 19.886719zm0 0"/><path d="m400.332031 272.328125c32.621094.136719 62.058594-19.550781 74.390625-49.753906 12.332032-30.203125 5.089844-64.867188-18.300781-87.609375-23.394531-22.738282-58.25-28.996094-88.089844-15.8125v-38.824219h24c13.253907 0 24-10.742187 24-24v-32c0-13.253906-10.746093-24-24-24h-304c-13.257812 0-24 10.746094-24 24v32c0 13.257813 10.742188 24 24 24h24v134.824219c-33.542969-14.820313-72.871093-4.933594-95.417969 23.984375-22.550781 28.917969-22.550781 69.46875 0 98.386719 22.546876 28.917968 61.875 38.800781 95.417969 23.984374v70.820313h174.726563c15.574218 35.703125 54.601562 55 92.425781 45.699219 37.824219-9.296875 63.457031-44.488282 60.699219-83.34375-2.753906-38.855469-33.09375-70.078125-71.851563-73.945313v-55.199219c10.078125 4.457032 20.976563 6.769532 32 6.789063zm0-144c27.003907-.160156 51.207031 16.648437 60.488281 42.007813 9.277344 25.363281 1.640626 53.824218-19.09375 71.128906-20.734374 17.304687-50.101562 19.730468-73.394531 6.066406v-110.402344c9.695313-5.71875 20.742188-8.757812 32-8.800781zm-312-64c-4.417969 0-8-3.578125-8-8v-32c0-4.417969 3.582031-8 8-8h304c4.417969 0 8 3.582031 8 8v32c0 4.421875-3.582031 8-8 8h-24v-16h16v-16h-288v16h16v16zm-8 288c-26.910156.007813-50.949219-16.816406-60.15625-42.105469-9.207031-25.285156-1.609375-53.628906 19.003907-70.925781 20.617187-17.292969 49.851562-19.84375 73.152343-6.382813v110.832032c-9.71875 5.640625-20.761719 8.605468-32 8.582031zm48 64v-368h224v272.410156c-22.511719 2.257813-43.015625 13.941407-56.433593 32.160157-13.414063 18.21875-18.492188 41.261718-13.96875 63.429687zm296-16c0 35.347656-28.65625 64-64 64-35.347656 0-64-28.652344-64-64 0-35.34375 28.652344-64 64-64 35.328125.042969 63.957031 28.671875 64 64zm0 0"/><path d="m80.332031 264.328125c4.417969 0 8 3.582031 8 8h16c-.042969-10.132813-6.445312-19.148437-16-22.527344v-9.472656h-16v9.472656c-11.015625 3.878907-17.621093 15.136719-15.644531 26.640625 1.980469 11.507813 11.96875 19.910156 23.644531 19.886719 4.417969 0 8 3.582031 8 8 0 4.421875-3.582031 8-8 8s-8-3.578125-8-8h-16c.039063 10.136719 6.445313 19.152344 16 22.53125v9.46875h16v-9.46875c11.011719-3.878906 17.621094-15.136719 15.640625-26.644531-1.976562-11.503906-11.964844-19.90625-23.640625-19.886719-4.417969 0-8-3.578125-8-8 0-4.417969 3.582031-8 8-8zm0 0"/><path d="m168.332031 160.328125h16v16h-16zm0 0"/><path d="m200.332031 160.328125h112v16h-112zm0 0"/><path d="m168.332031 192.328125h16v16h-16zm0 0"/><path d="m200.332031 192.328125h112v16h-112zm0 0"/><path d="m168.332031 224.328125h16v16h-16zm0 0"/><path d="m200.332031 224.328125h112v16h-112zm0 0"/><path d="m160.332031 384.328125h72v16h-72zm0 0"/><path d="m248.332031 384.328125h16v16h-16zm0 0"/><path d="m160.332031 352.328125h72v16h-72zm0 0"/><path d="m248.332031 352.328125h16v16h-16zm0 0"/><path d="m312.332031 80.328125h-144v64h144zm-16 48h-112v-32h112zm0 0"/></svg>