<?xml version="1.0"?>
<svg xmlns="http://www.w3.org/2000/svg" xmlns:xlink="http://www.w3.org/1999/xlink" xmlns:svgjs="http://svgjs.com/svgjs" version="1.1" width="512" height="512" x="0" y="0" viewBox="0 0 512 512" style="enable-background:new 0 0 512 512" xml:space="preserve" class=""><g><path xmlns="http://www.w3.org/2000/svg" d="m512 0v120h-31v-90h-90v-30zm0 0" fill="#f5be34" data-original="#f03800" style="" class=""/><path xmlns="http://www.w3.org/2000/svg" d="m512 390v122h-121v-32h90v-90zm0 0" fill="#f5be34" data-original="#f03800" style="" class=""/><path xmlns="http://www.w3.org/2000/svg" d="m31 30h90v-30h-121v120h31zm0 0" fill="#f5be34" data-original="#ff641a" style="" class=""/><path xmlns="http://www.w3.org/2000/svg" d="m31 390h-31v122h121v-32h-90zm0 0" fill="#f5be34" data-original="#ff641a" style="" class=""/><g xmlns="http://www.w3.org/2000/svg" fill="#7c8388"><path d="m211 90v-30h-150v150h150v-90h30v-30zm-60 60h-30v-30h30zm0 0" fill="#6a6a6a" data-original="#7c8388" style="" class=""/><path d="m391 300v-30h-30v30h-90v30h30v30h-30v30h30v60h150v-150zm0 90h-30v-30h30zm0 0" fill="#6a6a6a" data-original="#7c8388" style="" class=""/><path d="m271 420v30h-150v-30h-30v-30h30v-60h-30c0-.089844 0-.128906 0-.128906v-29.871094h30v-30h-60v-30h150v30h-60v90h30v30h-30v30h60v-30h30v30zm0 0" fill="#6a6a6a" data-original="#7c8388" style="" class=""/><path d="m301 60v150h60v30h30v-30h60v-150zm90 90h-30v-30h30zm0 0" fill="#6a6a6a" data-original="#7c8388" style="" class=""/><path d="m451 240v30s-56.699219 0-60 0v-30zm0 0" fill="#6a6a6a" data-original="#7c8388" style="" class=""/><path d="m241 330h30v30h-30zm0 0" fill="#6a6a6a" data-original="#7c8388" style="" class=""/><path d="m181 330v30h30v-60h-30zm0 0" fill="#6a6a6a" data-original="#7c8388" style="" class=""/><path d="m211 270h30v30h-30zm0 0" fill="#6a6a6a" data-original="#7c8388" style="" class=""/><path d="m91 330h-30c0 3.332031 0 63.246094 0 60h30c0-3.332031 0-63.246094 0-60zm0 0" fill="#6a6a6a" data-original="#7c8388" style="" class=""/><path d="m61 420h30v30h-30zm0 0" fill="#6a6a6a" data-original="#7c8388" style="" class=""/><path d="m241 60h30v30h-30zm0 0" fill="#6a6a6a" data-original="#7c8388" style="" class=""/><path d="m271 120v60h-30s0-56.699219 0-60zm0 0" fill="#6a6a6a" data-original="#7c8388" style="" class=""/><path d="m361 240v30h-120v-60h30v30zm0 0" fill="#6a6a6a" data-original="#7c8388" style="" class=""/></g><path xmlns="http://www.w3.org/2000/svg" d="m256 60h15v30h-15zm0 0" fill="#6a6a6a" data-original="#575f64" style="" class=""/><path xmlns="http://www.w3.org/2000/svg" d="m271 180h-15v-60h15zm0 0" fill="#6a6a6a" data-original="#575f64" style="" class=""/><path xmlns="http://www.w3.org/2000/svg" d="m256 420h15v30h-15zm0 0" fill="#6a6a6a" data-original="#575f64" style="" class=""/><path xmlns="http://www.w3.org/2000/svg" d="m256 330h15v30h-15zm0 0" fill="#6a6a6a" data-original="#575f64" style="" class=""/><path xmlns="http://www.w3.org/2000/svg" d="m361 240v30h-105v-60h15v30zm0 0" fill="#6a6a6a" data-original="#575f64" style="" class=""/><path xmlns="http://www.w3.org/2000/svg" d="m301 60v150h60v30h30v-30h60v-150zm90 90h-30v-30h30zm0 0" fill="#6a6a6a" data-original="#575f64" style="" class=""/><path xmlns="http://www.w3.org/2000/svg" d="m391 270v-30h60v30s-56.699219 0-60 0zm0 0" fill="#6a6a6a" data-original="#575f64" style="" class=""/><path xmlns="http://www.w3.org/2000/svg" d="m391 300v-30h-30v30h-90v30h30v30h-30v30h30v60h150v-150zm0 90h-30v-30h30zm0 0" fill="#6a6a6a" data-original="#575f64" style="" class=""/></g></svg>
